<svg width="181" height="242" viewBox="0 0 181 242" fill="none" xmlns="http://www.w3.org/2000/svg">
<g clip-path="url(#clip0_11_193)">
<path d="M80.1842 210.084C79.8431 218.537 79.5609 226.995 79.1314 235.44C78.8745 240.474 78.3986 240.832 73.4629 240.942C72.6333 240.958 71.7994 240.92 70.9698 240.874C67.0574 240.659 67.0658 240.651 65.9035 236.822C65.7898 236.451 65.5413 236.123 65.356 235.777C64.9433 236.047 64.3664 236.215 64.1474 236.595C62.4586 239.521 59.8855 240.743 56.6006 240.971C53.7032 241.169 50.8311 241.785 47.9336 241.937C40.6733 242.32 34.9879 239.479 31.2188 233.171C28.5698 228.74 26.2999 224.132 26.3546 218.786C26.3715 217.209 25.7482 215.088 27.7823 214.46C29.3952 213.963 30.3259 215.704 31.4714 216.686C33.7666 218.659 36.0113 220.835 38.6476 222.235C43.0442 224.566 47.3735 221.961 47.9042 216.948C48.1232 214.886 48.0516 212.791 48.0347 210.712C47.9631 202.39 47.841 194.067 47.7947 185.749C47.7862 184.092 47.7989 182.388 48.1653 180.786C48.738 178.303 50.7805 177.797 52.3471 179.766C54.3265 182.253 56.0658 184.939 57.9188 187.528C58.6389 188.535 59.3675 189.547 60.1634 190.492C60.2771 190.627 61.0352 190.5 61.1068 190.327C61.4353 189.573 61.6753 188.767 61.8564 187.958C64.3243 177.004 66.7711 166.051 69.2263 155.093C69.2558 154.958 69.3273 154.823 69.3273 154.693C69.3231 154.149 69.3021 153.609 69.2852 153.065C68.8262 153.285 68.2871 153.415 67.925 153.744C67.0027 154.579 66.1857 155.532 65.2802 156.388C61.4353 160.022 57.3587 163.336 52.4609 165.486C49.5213 166.776 46.4934 167.683 43.2464 167.792C35.8597 168.041 30.406 164.348 28.056 157.324C26.3336 152.18 26.561 146.931 27.5717 141.699C29.151 133.532 32.6675 126.2 37.2663 119.337C37.8643 118.447 38.2644 117.427 38.7571 116.465C37.7085 116.436 36.6472 116.314 35.607 116.398C28.6119 116.967 21.7642 116.238 15.0977 114.062C11.1011 112.759 7.46669 110.757 4.48504 107.725C-0.623335 102.531 -1.50351 95.5366 2.53097 89.4823C4.11444 87.1086 6.24539 84.9837 8.47741 83.175C14.6639 78.1621 21.9959 75.683 29.7406 74.376C32.6001 73.8954 35.5186 73.7731 38.4033 73.4358C38.8708 73.381 39.3088 73.0606 39.7594 72.8582C39.5825 72.5083 39.473 72.0951 39.2161 71.8211C38.357 70.9146 37.4179 70.0925 36.5588 69.186C30.1406 62.4276 25.2555 54.8007 23.5372 45.4746C23.1372 43.3076 22.9308 41.0688 22.9771 38.868C23.2214 27.4297 31.7662 19.7986 43.1916 20.6798C48.5232 21.0929 53.5053 22.6234 58.1883 25.2078C63.8357 28.3235 68.7209 32.3584 73.0039 37.1605C73.5008 37.7212 74.2757 38.029 74.9242 38.4548C75.0843 37.8098 75.3117 37.1774 75.3959 36.5239C76.5161 28.0748 79.6999 20.49 84.9725 13.8117C89.3566 8.26333 94.7555 4.0388 101.456 1.58503C106.282 -0.185734 111.23 -0.539887 116.162 0.805049C125.178 3.26725 130.417 9.54503 132.713 18.344C134.427 24.9169 134.035 31.5446 132.266 38.088C131.942 39.2896 131.5 40.4617 131.201 41.6717C130.982 42.5571 131.399 43.0124 132.317 42.7173C133.369 42.38 134.389 41.9416 135.433 41.5705C144.416 38.341 153.563 37.5442 162.765 40.331C165.894 41.2796 169.006 42.7468 171.693 44.6019C180.73 50.846 183.451 61.5211 178.701 71.4543C174.767 79.6757 168.294 85.359 160.171 89.2378C158.174 90.1906 156.06 90.8905 154.014 91.7379C153.689 91.8728 153.176 92.2143 153.205 92.3956C153.256 92.7414 153.567 93.1292 153.883 93.3443C155.829 94.6681 157.884 95.8444 159.762 97.2568C165.068 101.233 169.271 106.17 171.992 112.241C173.003 114.496 173.862 116.904 174.266 119.332C176.553 133.144 167.629 143.992 153.293 145.114C144.546 145.797 136.562 143.524 129.078 139.148C128.122 138.587 127.196 137.976 126.219 137.466C126.088 137.398 125.541 137.757 125.507 137.967C125.448 138.351 125.621 138.773 125.717 139.177C129.36 154.697 133.003 170.212 136.646 185.732C136.806 186.406 136.882 187.106 137.101 187.76C137.219 188.114 137.501 188.561 137.808 188.653C138.053 188.725 138.554 188.409 138.743 188.131C139.994 186.301 141.165 184.416 142.415 182.586C143.115 181.562 143.805 180.491 144.685 179.631C146.606 177.751 148.674 178.37 149.208 181.043C149.533 182.658 149.528 184.357 149.516 186.014C149.457 194.337 149.335 202.659 149.263 210.978C149.246 213.056 149.179 215.156 149.427 217.209C150.009 221.982 154.249 224.482 158.516 222.302C161.055 221.008 163.203 218.929 165.477 217.146C166.336 216.471 166.985 215.514 167.873 214.878C169.372 213.803 170.577 214.304 170.838 216.142C171.293 219.355 170.964 222.58 169.756 225.553C168.505 228.618 167.094 231.691 165.254 234.428C161.657 239.782 156.33 242.19 149.937 241.987C147.04 241.894 144.167 241.254 141.266 241.064C137.711 240.832 134.797 239.672 132.999 236.392C132.835 236.089 132.397 235.933 132.085 235.709C131.862 236.03 131.542 236.321 131.432 236.675C130.173 240.693 130.181 240.722 126.075 240.883C124.555 240.942 123.022 240.933 121.51 240.777C119.253 240.545 118.731 239.989 118.377 237.674C118.192 236.443 118.099 235.191 118.065 233.943C117.648 218.141 117.244 202.335 116.844 186.533C116.819 185.563 116.789 184.581 116.92 183.624C117.253 181.149 118.828 180.411 120.929 181.802C122.188 182.637 123.334 183.657 124.471 184.665C125.608 185.677 126.657 186.79 127.781 187.814C128.063 188.072 128.51 188.152 128.88 188.312C128.964 187.949 129.124 187.583 129.116 187.224C129.103 186.819 128.922 186.419 128.838 186.014C126.619 175.575 124.404 165.132 122.188 154.693C122.045 154.014 121.923 153.331 121.721 152.673C121.662 152.488 121.35 152.264 121.157 152.264C120.946 152.264 120.609 152.471 120.55 152.656C120.18 153.845 119.868 155.051 119.535 156.253C118.276 160.831 116.393 165.132 113.761 169.091C111.584 172.367 108.923 175.158 105.553 177.224C99.0553 181.212 92.2329 180.871 86.1559 176.258C81.9446 173.062 79.2914 168.732 77.1141 164.006C76.5161 162.712 76.7351 160.912 75.0337 160.207C74.6463 161.645 74.1788 163.062 73.8798 164.516C72.4648 171.443 71.0835 178.375 69.7274 185.314C69.6306 185.808 69.8159 186.36 69.8706 186.883C70.3465 186.642 70.894 186.491 71.2772 186.149C72.3174 185.234 73.2271 184.172 74.2967 183.295C75.139 182.603 76.0824 181.954 77.0847 181.549C78.8113 180.854 80.1253 181.655 80.3737 183.463C80.5043 184.42 80.4622 185.403 80.4622 186.373C80.4664 194.278 80.4664 202.183 80.4664 210.088C80.3653 210.088 80.2727 210.088 80.1842 210.084ZM42.6147 80.0045C32.8907 79.9708 24.4595 81.8512 16.6222 86.1347C13.4215 87.8844 10.5831 90.0768 8.63744 93.2431C6.23697 97.1556 6.73812 100.566 10.1999 103.623C12.5372 105.689 15.3546 106.844 18.3025 107.692C26.2157 109.96 34.1793 109.711 42.1599 108.088C46.0048 107.304 49.4918 105.845 52.7514 103.547C55.3288 101.73 58.2809 100.402 61.1742 99.0992C62.2144 98.6313 63.6252 98.6017 64.7749 98.8336C66.7458 99.2299 67.5754 100.811 66.6868 102.615C65.9751 104.053 64.9728 105.584 63.6841 106.456C60.7193 108.467 57.4682 110.048 54.3981 111.916C52.6461 112.979 50.7552 114.007 49.3908 115.479C43.0822 122.292 38.6055 130.214 35.8723 139.097C34.512 143.52 33.9182 148.052 34.6005 152.656C35.468 158.513 39.0392 161.139 44.8341 160.127C46.5776 159.824 48.38 159.263 49.8961 158.373C52.7514 156.7 55.6236 154.946 58.1209 152.796C64.0716 147.673 68.6451 141.425 72.0942 134.363C73.6145 131.251 75.118 128.136 76.6762 125.045C77.1099 124.189 77.6069 123.317 78.2723 122.646C79.5062 121.398 81.4224 122.022 81.7803 123.755C81.9151 124.408 81.8393 125.134 81.7382 125.808C81.1739 129.502 80.3864 133.17 80.0158 136.884C79.1609 145.434 80.1674 153.769 83.6039 161.717C85.0526 165.064 87.0024 168.087 89.8704 170.402C94.0059 173.745 99.0764 173.91 103.258 170.63C104.977 169.28 106.463 167.565 107.798 165.819C110.182 162.703 111.664 159.09 112.742 155.346C115.652 145.236 115.555 135.101 112.873 124.952C112.519 123.62 112.119 122.275 111.988 120.913C111.854 119.522 112.654 118.342 114.001 118.169C114.953 118.046 116.116 118.493 116.966 119.029C117.594 119.425 117.851 120.391 118.301 121.086C119.051 122.241 119.691 123.51 120.613 124.51C127.962 132.465 137.021 137.116 147.814 138.233C152.022 138.667 156.128 138.052 159.943 136.142C165.144 133.536 167.789 129.278 167.705 123.435C167.642 118.995 166.058 115.023 163.62 111.393C159.493 105.251 153.959 100.697 147.208 97.7585C141.565 95.3047 135.686 93.8122 129.415 94.7777C128.497 94.9211 127.36 94.9042 126.606 94.4742C125.738 93.9767 124.905 93.0365 124.564 92.1047C124.096 90.8272 124.761 89.5287 125.953 88.9427C127.162 88.3482 128.547 87.9224 129.882 87.8254C132.224 87.6567 134.591 87.7537 136.941 87.8127C148.909 88.1079 159.156 83.9592 167.827 75.8053C170.071 73.693 171.756 71.1676 172.91 68.2838C176.068 60.3786 173.638 53.325 166.256 49.1216C161.413 46.3642 156.119 45.3102 150.653 45.5548C139.741 46.048 130.106 49.7329 122.268 57.6001C121.51 58.3633 120.584 59.2149 119.607 59.4342C118.668 59.645 117.366 59.354 116.57 58.7933C115.501 58.0386 115.206 56.6642 115.867 55.4162C116.377 54.4549 117.017 53.5021 117.792 52.7432C124.096 46.5835 126.606 38.7542 127.415 30.3009C127.954 24.6471 126.661 19.2463 123.595 14.3978C119.851 8.47414 113.538 5.94448 106.724 7.41168C101.384 8.55846 96.9075 11.223 93.2731 15.203C84.0503 25.3048 80.1632 36.8696 84.0039 50.4454C84.2271 51.2381 84.4672 52.0602 84.4756 52.8739C84.5051 55.041 83.0353 56.5335 80.8665 56.6178C79.0724 56.6853 77.6027 55.9938 76.6551 54.4339C75.8634 53.1311 75.1938 51.7609 74.4231 50.4454C68.7883 40.8369 61.2121 33.4082 50.671 29.3143C47.3904 28.0411 44.0255 27.4129 40.5006 27.7206C34.7816 28.2224 30.8945 31.747 30.3723 37.443C30.1238 40.1539 30.107 43.1221 30.9408 45.6559C36.1208 61.3778 46.3796 71.9391 62.7492 76.0119C63.8147 76.2775 64.9517 76.4841 65.8782 77.0237C67.9586 78.238 68.3293 80.6622 66.5857 82.2854C64.5854 84.1532 63.6252 85.165 60.3319 83.7611C54.436 81.2525 48.3127 79.5745 42.6147 80.0045ZM142.517 202.073C142.626 202.065 142.731 202.061 142.841 202.052C142.841 199.421 142.866 196.791 142.82 194.16C142.811 193.696 142.504 193.236 142.335 192.777C141.944 193.118 141.476 193.401 141.182 193.81C140.293 195.045 139.497 196.344 138.625 197.592C136.789 200.21 134.566 200.88 131.853 199.223C130.118 198.165 128.619 196.66 127.179 195.197C125.242 193.228 123.477 191.09 121.599 189.062C121.376 188.822 120.803 188.645 120.563 188.767C120.318 188.894 120.201 189.425 120.184 189.788C120.15 190.475 120.222 191.17 120.26 191.862C120.933 203.886 121.603 215.915 122.281 227.939C122.412 230.287 122.605 232.636 122.698 234.988C122.744 236.194 123.287 236.734 124.471 236.73C125.023 236.725 125.591 236.725 126.126 236.848C127.684 237.21 128.476 236.641 128.649 235.035C128.783 233.799 129.057 232.577 129.276 231.35C129.512 230.03 130.139 228.934 131.487 228.609C132.894 228.268 133.816 229.229 134.599 230.233C135.454 231.32 136.145 232.56 137.118 233.525C137.846 234.251 138.874 235.035 139.825 235.115C144.365 235.499 148.926 235.874 153.475 235.827C157.593 235.785 160.929 233.964 162.841 230.06C163.51 228.694 164.382 227.416 164.929 226.008C165.401 224.802 166.547 223.66 165.713 222.163C164.731 222.905 163.763 223.664 162.769 224.389C161.99 224.958 161.215 225.557 160.368 226.008C155.003 228.858 149.579 227.383 146.366 222.209C144.892 219.836 143.784 217.302 143.536 214.481C143.157 210.341 142.849 206.209 142.517 202.073ZM54.4823 201.761C54.4486 201.761 54.4149 201.761 54.3812 201.761C54.3812 204.392 54.5328 207.031 54.3475 209.65C54.057 213.794 53.5179 217.888 51.3069 221.598C47.5378 227.926 40.9765 229.297 35.0806 224.832C34.0909 224.081 33.1981 223.204 32.2379 222.416C32.0652 222.273 31.6483 222.167 31.543 222.264C31.3746 222.416 31.2398 222.808 31.3198 223.002C32.1495 225.043 33.0044 227.071 33.8972 229.082C36.066 233.977 40.0584 235.971 45.1836 235.967C48.0852 235.962 50.9869 235.692 53.8885 235.655C57.4387 235.608 60.3782 234.584 62.0417 231.152C62.2775 230.663 62.6523 230.22 63.0356 229.828C65.0612 227.741 67.129 228.238 67.9292 231.076C68.3419 232.535 68.4935 234.065 68.7672 235.566C68.9357 236.51 69.4284 237.042 70.4602 236.936C71.2856 236.848 72.1153 236.738 72.9407 236.734C74.2209 236.73 74.5789 235.988 74.5958 234.883C74.6042 234.192 74.6421 233.5 74.6842 232.809C75.4633 219.267 76.2466 205.72 77.0257 192.178C77.072 191.348 77.1478 190.517 77.1141 189.691C77.0973 189.353 76.8783 188.814 76.6467 188.75C76.3561 188.67 75.8507 188.89 75.6233 189.147C72.5827 192.545 69.5463 195.943 66.5689 199.396C64.299 202.027 62.3618 202.124 60.0666 199.51C59.3422 198.688 58.8032 197.697 58.1715 196.795C57.2997 195.551 56.4279 194.303 55.5225 193.08C55.3962 192.912 55.0298 192.768 54.8571 192.836C54.6802 192.903 54.5034 193.241 54.5034 193.46C54.4739 196.221 54.4823 198.991 54.4823 201.761Z" fill="black"/>
<path d="M42.6145 80.0048C48.3083 79.5747 54.4316 81.2527 60.3444 83.7697C63.6376 85.1737 64.5978 84.1618 66.5982 82.2941C68.3375 80.6667 67.9711 78.2424 65.8907 77.0324C64.9642 76.4928 63.8271 76.2862 62.7617 76.0205C46.3921 71.9478 36.1332 61.3822 30.9533 45.6646C30.1194 43.1307 30.1363 40.1626 30.3847 37.4517C30.907 31.7557 34.794 28.231 40.5131 27.7293C44.0338 27.4215 47.4028 28.0455 50.6835 29.323C61.2245 33.4168 68.8008 40.8456 74.4356 50.4541C75.2062 51.7695 75.8801 53.1398 76.6676 54.4425C77.6151 56.0025 79.0849 56.6939 80.8789 56.6265C83.052 56.5422 84.5176 55.0497 84.4881 52.8826C84.4797 52.0689 84.2396 51.2467 84.0164 50.4541C80.1714 36.8783 84.0627 25.3135 93.2856 15.2117C96.9158 11.2317 101.397 8.56714 106.737 7.42036C113.546 5.95738 119.859 8.48704 123.607 14.4064C126.673 19.255 127.966 24.6558 127.427 30.3096C126.619 38.7629 124.109 46.5879 117.804 52.7519C117.029 53.5108 116.389 54.4594 115.88 55.4249C115.218 56.6729 115.509 58.0473 116.583 58.802C117.379 59.3627 118.68 59.6494 119.619 59.4428C120.6 59.2236 121.523 58.3719 122.281 57.6088C130.118 49.7374 139.758 46.0525 150.665 45.5634C156.132 45.3189 161.425 46.3729 166.268 49.1303C173.647 53.3337 176.081 60.3872 172.922 68.2924C171.768 71.1762 170.084 73.7059 167.839 75.814C159.168 83.9679 148.922 88.1165 136.953 87.8214C134.599 87.7624 132.236 87.6654 129.895 87.8341C128.56 87.931 127.174 88.3569 125.966 88.9513C124.77 89.5374 124.109 90.8359 124.576 92.1134C124.917 93.0452 125.751 93.9854 126.619 94.4829C127.372 94.9171 128.509 94.9298 129.427 94.7864C135.698 93.8167 141.577 95.3092 147.22 97.7672C153.971 100.706 159.505 105.259 163.632 111.402C166.071 115.028 167.654 119.004 167.717 123.443C167.801 129.287 165.157 133.545 159.956 136.151C156.14 138.06 152.034 138.68 147.827 138.242C137.037 137.125 127.979 132.47 120.626 124.518C119.703 123.519 119.063 122.25 118.314 121.095C117.863 120.399 117.606 119.434 116.979 119.037C116.128 118.498 114.966 118.055 114.014 118.177C112.666 118.35 111.866 119.531 112.001 120.922C112.131 122.284 112.532 123.629 112.885 124.961C115.568 135.105 115.665 145.245 112.755 155.355C111.677 159.103 110.194 162.712 107.811 165.828C106.476 167.573 104.989 169.293 103.271 170.638C99.0931 173.918 94.0184 173.754 89.8828 170.411C87.0149 168.092 85.065 165.069 83.6163 161.725C80.1799 153.778 79.1733 145.443 80.0282 136.893C80.3988 133.182 81.1864 129.51 81.7507 125.817C81.8518 125.142 81.9276 124.417 81.7928 123.764C81.4348 122.031 79.5187 121.411 78.2847 122.655C77.6194 123.325 77.1182 124.202 76.6886 125.054C75.1262 128.144 73.6228 131.264 72.1067 134.371C68.6576 141.433 64.084 147.686 58.1334 152.804C55.6361 154.954 52.7639 156.708 49.9086 158.382C48.3925 159.272 46.5901 159.828 44.8466 160.136C39.0517 161.148 35.4805 158.521 34.613 152.665C33.9307 148.061 34.5245 143.529 35.8848 139.106C38.618 130.223 43.0988 122.301 49.4032 115.487C50.7677 114.012 52.6628 112.987 54.4105 111.925C57.4806 110.061 60.7318 108.476 63.6966 106.465C64.9853 105.592 65.9876 104.062 66.6993 102.624C67.5879 100.82 66.754 99.2386 64.7873 98.8423C63.6376 98.6104 62.2268 98.6399 61.1866 99.1079C58.2934 100.411 55.3413 101.739 52.7639 103.556C49.5085 105.854 46.0215 107.312 42.1723 108.097C34.1876 109.724 26.2281 109.969 18.315 107.7C15.3628 106.853 12.5496 105.698 10.2123 103.632C6.75481 100.575 6.24944 97.1601 8.64992 93.2518C10.5956 90.0855 13.434 87.8931 16.6347 86.1434C24.4594 81.8514 32.8947 79.9752 42.6145 80.0048ZM95.5892 112.629C95.863 112.587 96.9748 112.519 98.036 112.254C106.551 110.108 113.395 100.874 113.003 92.0965C112.986 91.6876 113.016 91.1859 112.797 90.895C112.51 90.5071 112.039 90.1445 111.58 90.0264C111.289 89.9505 110.691 90.2625 110.565 90.545C110.232 91.2913 110.156 92.1513 109.845 92.9102C108.813 95.4526 108.025 98.1593 106.594 100.457C103.65 105.175 99.211 107.456 93.6015 106.899C88.3794 106.381 85.2209 103.092 83.1236 98.5556C82.7193 97.6787 82.4666 96.7005 81.9192 95.929C81.5949 95.4736 80.7358 95.0056 80.2851 95.1363C79.7924 95.2797 79.4176 96.0639 79.1354 96.6373C78.9712 96.9746 79.0428 97.4552 79.0891 97.8642C80.0956 106.419 86.6948 112.717 95.5892 112.629ZM94.4479 76.6361C94.2795 76.2356 94.0773 75.7634 93.8752 75.2912C93.3404 75.5821 92.4981 75.7465 92.3212 76.1808C91.6011 77.9642 90.9946 79.8108 90.5103 81.6743C89.3564 86.0928 89.4112 86.1476 93.9257 86.8095C94.7469 86.9318 95.227 87.1974 94.8438 88.0955C94.3048 89.3645 93.6899 90.604 93.2056 91.8942C92.974 92.5139 92.8729 93.218 92.894 93.88C92.9024 94.1666 93.3277 94.5082 93.6394 94.6937C93.8078 94.7906 94.2584 94.7021 94.3764 94.5461C96.1283 92.2146 97.5391 89.7102 97.7328 86.7294C97.8128 85.5152 97.1558 84.6003 95.8798 84.36C95.2102 84.2335 94.5111 84.2209 93.8247 84.2124C92.4265 84.1998 92.2243 83.4704 92.6076 82.3152C93.214 80.4812 93.7952 78.643 94.4479 76.6361ZM80.2851 83.2343C81.4433 83.3397 82.7277 82.1971 82.7362 80.9913C82.7488 79.7223 82.0329 78.9507 80.8495 78.664C79.6913 78.3816 78.3311 79.4272 78.1753 80.633C78.0236 81.7671 79.127 83.1289 80.2851 83.2343ZM107.503 81.7587C107.381 80.6751 106.244 79.9036 105.056 80.1439C103.928 80.3716 103.435 81.1052 103.566 82.2393C103.7 83.3945 104.492 83.9173 105.536 83.9763C106.631 84.0311 107.629 82.8296 107.503 81.7587Z" fill="white"/>
<path d="M142.517 202.074C142.849 206.205 143.161 210.341 143.527 214.473C143.776 217.294 144.883 219.828 146.357 222.201C149.575 227.379 154.995 228.85 160.36 226C161.207 225.549 161.981 224.95 162.761 224.381C163.754 223.66 164.723 222.901 165.704 222.155C166.538 223.652 165.393 224.794 164.921 226C164.369 227.408 163.498 228.686 162.832 230.052C160.92 233.96 157.585 235.777 153.466 235.819C148.918 235.866 144.357 235.495 139.817 235.107C138.865 235.027 137.838 234.242 137.109 233.517C136.136 232.556 135.446 231.312 134.591 230.224C133.803 229.225 132.885 228.264 131.479 228.601C130.131 228.926 129.504 230.022 129.268 231.342C129.049 232.569 128.771 233.791 128.64 235.027C128.468 236.633 127.68 237.198 126.118 236.839C125.587 236.717 125.018 236.717 124.463 236.721C123.279 236.726 122.74 236.19 122.69 234.98C122.597 232.628 122.403 230.283 122.273 227.931C121.595 215.907 120.925 203.878 120.251 191.854C120.213 191.162 120.142 190.467 120.175 189.779C120.192 189.417 120.31 188.886 120.554 188.759C120.794 188.633 121.367 188.814 121.59 189.054C123.469 191.082 125.233 193.22 127.17 195.189C128.611 196.656 130.11 198.157 131.845 199.215C134.557 200.868 136.781 200.197 138.617 197.583C139.489 196.34 140.285 195.037 141.173 193.802C141.468 193.393 141.94 193.11 142.327 192.769C142.496 193.228 142.803 193.688 142.811 194.151C142.858 196.782 142.832 199.413 142.832 202.044C142.731 202.061 142.622 202.069 142.517 202.074Z" fill="black"/>
<path d="M54.4823 201.762C54.4823 198.992 54.4739 196.222 54.4992 193.456C54.4992 193.237 54.6761 192.899 54.853 192.832C55.0256 192.764 55.392 192.908 55.5183 193.076C56.4238 194.299 57.2955 195.543 58.1673 196.791C58.8032 197.697 59.338 198.684 60.0624 199.506C62.3618 202.12 64.299 202.023 66.5647 199.392C69.5422 195.939 72.5786 192.541 75.6192 189.143C75.8466 188.886 76.3519 188.666 76.6425 188.746C76.8741 188.81 77.0974 189.349 77.11 189.687C77.1479 190.513 77.0721 191.348 77.0215 192.174C76.2424 205.716 75.4591 219.263 74.68 232.805C74.6421 233.496 74.6042 234.188 74.5916 234.879C74.5747 235.984 74.2168 236.726 72.9365 236.73C72.1111 236.734 71.2815 236.844 70.456 236.932C69.4243 237.042 68.9315 236.506 68.7631 235.562C68.4935 234.065 68.3377 232.531 67.925 231.072C67.1248 228.234 65.0571 227.737 63.0314 229.824C62.6482 230.216 62.2734 230.659 62.0375 231.148C60.374 234.58 57.4345 235.608 53.8843 235.651C50.9827 235.689 48.0811 235.963 45.1795 235.963C40.0542 235.967 36.0619 233.973 33.893 229.078C33.0002 227.067 32.1453 225.034 31.3157 222.998C31.2356 222.804 31.3704 222.412 31.5389 222.26C31.6442 222.163 32.0611 222.269 32.2337 222.412C33.1981 223.2 34.0867 224.077 35.0764 224.828C40.9723 229.293 47.5336 227.922 51.3028 221.594C53.5137 217.884 54.0486 213.79 54.3434 209.646C54.5287 207.027 54.3771 204.388 54.3771 201.757C54.415 201.762 54.4487 201.762 54.4823 201.762Z" fill="black"/>
<path d="M95.5894 112.629C86.695 112.713 80.1 106.419 79.0935 97.8641C79.0472 97.4594 78.9756 96.9745 79.1399 96.6372C79.422 96.0639 79.7926 95.2797 80.2896 95.1363C80.7402 95.0056 81.5993 95.4736 81.9236 95.9289C82.471 96.7005 82.7237 97.6786 83.128 98.5556C85.2211 103.092 88.3838 106.385 93.6059 106.899C99.2196 107.456 103.658 105.175 106.598 100.457C108.03 98.1593 108.817 95.4525 109.849 92.9102C110.157 92.1513 110.237 91.2912 110.569 90.545C110.696 90.2583 111.294 89.9505 111.584 90.0264C112.043 90.1444 112.515 90.5028 112.801 90.8949C113.016 91.1858 112.987 91.6875 113.008 92.0965C113.399 100.87 106.556 110.103 98.0404 112.254C96.975 112.519 95.8632 112.591 95.5894 112.629Z" fill="black"/>
<path d="M94.4482 76.6361C93.7996 78.6472 93.2184 80.4854 92.6078 82.3152C92.2245 83.4704 92.4225 84.1998 93.8249 84.2124C94.5113 84.2208 95.2104 84.2335 95.88 84.36C97.1561 84.6003 97.813 85.5152 97.733 86.7294C97.5351 89.706 96.1285 92.2146 94.3766 94.5461C94.2586 94.7063 93.8038 94.7948 93.6396 94.6936C93.3279 94.5081 92.9026 94.1666 92.8942 93.8799C92.8731 93.218 92.9742 92.5139 93.2058 91.8941C93.6901 90.604 94.305 89.3687 94.844 88.0954C95.2273 87.1932 94.7472 86.9276 93.9259 86.8095C89.4156 86.1476 89.3566 86.0928 90.5105 81.6743C90.999 79.8108 91.6013 77.9684 92.3214 76.1807C92.4983 75.7465 93.3406 75.5778 93.8754 75.2911C94.0733 75.7633 94.2755 76.2355 94.4482 76.6361Z" fill="black"/>
<path d="M80.2853 83.2343C79.1314 83.1289 78.0238 81.7671 78.1755 80.6287C78.3355 79.4272 79.6957 78.3816 80.8497 78.6598C82.0331 78.9465 82.7448 79.7223 82.7364 80.9871C82.7237 82.1971 81.4435 83.3397 80.2853 83.2343Z" fill="black"/>
<path d="M107.503 81.7586C107.625 82.8295 106.632 84.0353 105.537 83.9721C104.492 83.9131 103.701 83.3903 103.566 82.2351C103.435 81.1051 103.928 80.3715 105.057 80.1397C106.244 79.9036 107.381 80.6709 107.503 81.7586Z" fill="black"/>
</g>
<defs>
<clipPath id="clip0_11_193">
<rect width="181" height="242" fill="white"/>
</clipPath>
</defs>
</svg>
