<svg xmlns="http://www.w3.org/2000/svg" viewBox="0 0 912.48 830.41"><defs><style>.cls-1,.cls-4,.cls-5,.cls-6,.cls-7{stroke:#000;stroke-miterlimit:10;}.cls-1{stroke-width:26px;}.cls-2{opacity:0.5;}.cls-3{fill:#fff;}.cls-4,.cls-5,.cls-6{fill:none;stroke-linecap:round;}.cls-4,.cls-7{stroke-width:5px;}.cls-5{stroke-width:9px;}.cls-6{stroke-width:11px;}</style></defs><g id="Layer_1" data-name="Layer 1"><path class="cls-1" d="M328.18,346.05c-23.75-.08-44.33,4.5-63.47,14.95-7.81,4.26-14.74,9.61-19.49,17.34-5.86,9.53-4.63,17.86,3.82,25.31,5.7,5,12.58,7.86,19.78,9.92,19.32,5.54,38.76,4.93,58.26,1a67.19,67.19,0,0,0,25.85-11.08c6.3-4.43,13.5-7.66,20.57-10.84a15.37,15.37,0,0,1,8.8-.65c4.8,1,6.84,4.82,4.66,9.22-1.73,3.51-4.18,7.24-7.32,9.37-7.24,4.91-15.18,8.77-22.68,13.31-4.28,2.6-8.9,5.1-12.23,8.7a147.49,147.49,0,0,0-33,57.6c-3.33,10.79-4.78,21.84-3.11,33.07,2.11,14.28,10.83,20.69,25,18.22A37.66,37.66,0,0,0,346,537.19c7-4.08,14-8.37,20.09-13.61,14.53-12.49,25.7-27.73,34.12-45,3.71-7.58,7.38-15.19,11.19-22.72a22.7,22.7,0,0,1,3.9-5.86c3-3,7.69-1.52,8.56,2.7a14.57,14.57,0,0,1-.1,5c-1.38,9-3.3,18-4.21,27-2.09,20.86.37,41.18,8.76,60.56,3.53,8.17,8.3,15.54,15.3,21.19,10.09,8.15,22.48,8.56,32.68.55a64.24,64.24,0,0,0,11.08-11.73c5.82-7.6,9.44-16.41,12.08-25.55,7.11-24.66,6.87-49.38.32-74.12a61.48,61.48,0,0,1-2.16-9.85c-.32-3.39,1.63-6.27,4.92-6.69,2.32-.3,5.17.78,7.24,2.1,1.53,1,2.16,3.32,3.26,5,1.83,2.82,3.39,5.91,5.65,8.35,17.94,19.4,40.06,30.75,66.41,33.47a53,53,0,0,0,29.61-5.11c12.7-6.35,19.15-16.73,19-31-.15-10.82-4-20.51-10-29.36a91.4,91.4,0,0,0-40.07-33.25c-13.78-6-28.13-9.63-43.44-7.27-2.24.35-5,.31-6.86-.74a11.91,11.91,0,0,1-5-5.78,6.21,6.21,0,0,1,3.4-7.71,26.78,26.78,0,0,1,9.59-2.73c5.72-.41,11.49-.17,17.24,0,29.22.72,54.24-9.4,75.41-29.29a50.63,50.63,0,0,0,12.41-18.35c7.72-19.28,1.78-36.48-16.24-46.73-11.82-6.72-24.75-9.3-38.1-8.69-26.64,1.19-50.17,10.18-69.31,29.38-1.85,1.86-4.11,3.94-6.5,4.47a10.39,10.39,0,0,1-7.42-1.56,6.2,6.2,0,0,1-1.71-8.23,26.69,26.69,0,0,1,4.7-6.52c15.39-15,21.53-34.11,23.5-54.73a60.5,60.5,0,0,0-9.33-38.78c-9.14-14.45-24.55-20.62-41.19-17.05a61,61,0,0,0-32.83,19c-22.52,24.64-32,52.84-22.63,85.95a24,24,0,0,1,1.15,5.93c.07,5.28-3.51,8.92-8.82,9.13a10.83,10.83,0,0,1-10.27-5.33c-1.94-3.17-3.58-6.52-5.46-9.72-13.76-23.44-32.26-41.55-58-51.54a54.53,54.53,0,0,0-24.83-3.88c-14,1.22-23.46,9.81-24.73,23.71-.61,6.61-.65,13.85,1.39,20,12.65,38.34,37.7,64.11,77.66,74,2.6.65,5.38,1.15,7.64,2.47,5.08,3,6,8.87,1.73,12.83-4.88,4.56-7.23,7-15.27,3.6C357,349.09,342.08,345,328.18,346.05Z"/><path class="cls-2" d="M459.54,413.92c-21.12.2-36.78-14.73-39.17-35a5.68,5.68,0,0,1,.11-2.91c.66-1.36,1.55-3.22,2.72-3.56s3.11.8,3.88,1.89c1.3,1.82,1.9,4.14,2.86,6.22,5,10.76,12.47,18.57,24.88,19.79,13.32,1.32,23.86-4.09,30.85-15.27,3.4-5.46,5.27-11.88,7.72-17.91.74-1.8.92-3.84,1.71-5.61a2.76,2.76,0,0,1,2.41-1.23,5.62,5.62,0,0,1,2.89,2.06,5.42,5.42,0,0,1,.49,2.85c.93,20.81-15.32,42.71-35.54,47.8A43.8,43.8,0,0,1,459.54,413.92Z"/><path class="cls-2" d="M456.83,328.54c-1.54,4.77-2.92,9.13-4.37,13.47-.91,2.74-.43,4.47,2.89,4.5a28.33,28.33,0,0,1,4.88.35,5,5,0,0,1,4.4,5.62c-.47,7.06-3.81,13-8,18.54a1.83,1.83,0,0,1-1.75.35c-.75-.44-1.76-1.25-1.78-1.93a12.57,12.57,0,0,1,.74-4.71c1.15-3.06,2.61-6,3.89-9,.91-2.13-.23-2.76-2.18-3.05-10.71-1.57-10.85-1.7-8.11-12.18a108.6,108.6,0,0,1,4.31-13c.42-1,2.42-1.42,3.69-2.11C456,326.47,456.43,327.59,456.83,328.54Z"/><path class="cls-2" d="M423.2,344.19c-2.74-.24-5.36-3.47-5-6.18s3.61-5.33,6.36-4.66,4.5,2.51,4.47,5.52A5.78,5.78,0,0,1,423.2,344.19Z"/><path class="cls-2" d="M487.84,340.69c.29,2.55-2.07,5.4-4.67,5.25s-4.36-1.37-4.68-4.12.86-4.42,3.54-5A4.78,4.78,0,0,1,487.84,340.69Z"/><path class="cls-3" d="M329,346.42c-23.74-.07-44.33,4.51-63.46,14.95-7.81,4.27-14.74,9.62-19.49,17.34-5.87,9.54-4.63,17.87,3.81,25.32,5.71,5,12.58,7.86,19.79,9.92,19.32,5.53,38.76,4.93,58.25,1a67.45,67.45,0,0,0,25.86-11.08c6.29-4.43,13.5-7.66,20.57-10.84a15.25,15.25,0,0,1,8.79-.65c4.81,1,6.84,4.82,4.67,9.22-1.73,3.51-4.18,7.23-7.33,9.37-7.24,4.9-15.18,8.76-22.67,13.31-4.28,2.59-8.9,5.1-12.24,8.69a147.72,147.72,0,0,0-33,57.61c-3.32,10.79-4.77,21.83-3.11,33.07,2.12,14.28,10.84,20.69,25,18.22a37.81,37.81,0,0,0,12.37-4.28c7-4.08,14-8.36,20.08-13.6,14.54-12.49,25.7-27.73,34.12-45,3.71-7.59,7.38-15.19,11.19-22.73a23.16,23.16,0,0,1,3.9-5.85c3-3,7.7-1.53,8.57,2.7a14.27,14.27,0,0,1-.11,5c-1.38,9-3.3,18-4.2,27-2.09,20.85.37,41.18,8.75,60.56,3.54,8.16,8.3,15.53,15.3,21.19,10.1,8.15,22.49,8.55,32.69.55a65,65,0,0,0,11.08-11.74c5.82-7.6,9.44-16.4,12.07-25.54,7.11-24.66,6.87-49.39.32-74.13a61.33,61.33,0,0,1-2.15-9.84c-.33-3.4,1.63-6.27,4.92-6.7,2.32-.29,5.16.79,7.24,2.1,1.53,1,2.16,3.33,3.26,5,1.83,2.82,3.39,5.91,5.64,8.34,17.95,19.4,40.07,30.75,66.41,33.48a53,53,0,0,0,29.62-5.11c12.7-6.35,19.15-16.73,19-31-.16-10.82-4-20.52-10-29.36a91.3,91.3,0,0,0-40.08-33.25c-13.78-6-28.13-9.63-43.44-7.27-2.24.34-5,.31-6.86-.74a12.06,12.06,0,0,1-5-5.78,6.22,6.22,0,0,1,3.4-7.71,26.77,26.77,0,0,1,9.6-2.73c5.71-.41,11.49-.17,17.23,0,29.23.72,54.24-9.4,75.42-29.29a50.84,50.84,0,0,0,12.41-18.35c7.71-19.28,1.77-36.48-16.25-46.73-11.82-6.73-24.75-9.3-38.09-8.7-26.64,1.2-50.17,10.19-69.31,29.38-1.86,1.86-4.11,3.94-6.5,4.48a10.38,10.38,0,0,1-7.42-1.56,6.19,6.19,0,0,1-1.71-8.23,26.17,26.17,0,0,1,4.7-6.52c15.39-15,21.52-34.11,23.49-54.73a60.48,60.48,0,0,0-9.32-38.79c-9.15-14.44-24.56-20.61-41.19-17a61,61,0,0,0-32.84,19c-22.51,24.63-32,52.84-22.63,85.95a23,23,0,0,1,1.15,5.92c.07,5.28-3.51,8.93-8.81,9.13a10.81,10.81,0,0,1-10.28-5.32c-1.93-3.17-3.57-6.52-5.45-9.73-13.76-23.44-32.26-41.55-58-51.53a54.65,54.65,0,0,0-24.83-3.89c-14,1.23-23.45,9.82-24.73,23.72-.61,6.61-.65,13.85,1.39,20,12.65,38.34,37.7,64.1,77.67,74,2.6.64,5.38,1.15,7.64,2.46,5.08,3,6,8.87,1.73,12.84-4.89,4.56-7.23,7-15.28,3.6C357.86,349.47,342.91,345.37,329,346.42Z"/></g><g id="Layer_2" data-name="Layer 2"><circle cx="423.53" cy="339.03" r="5.28"/><circle cx="483.57" cy="339.79" r="5.28"/><path class="cls-4" d="M454.71,326.68s-8.76,20.84-5,22.5c4.43,2,16.38-3.5,11.11,7.16-5.57,11.25-7.31,13.81-7.31,13.81"/><path class="cls-5" d="M423.4,375s1.1,32.77,36.51,31.39,36.51-37.34,36.51-37.34"/></g><g id="Layer_3" data-name="Layer 3"><line class="cls-6" x1="411.07" y1="479.83" x2="383.62" y2="612.39"/><line class="cls-6" x1="512.08" y1="456.99" x2="541.01" y2="610.03"/></g><g id="Layer_4" data-name="Layer 4"><path class="cls-7" d="M543.51,615.61,571,580.1a2.59,2.59,0,0,1,4.64,1.58v86.15s9.37,26.78,30.8,9.38l16-13a3.3,3.3,0,0,1,5.37,2.7c-.63,15.22-5.5,49.69-36.81,49.17l-40.17-.67-8-12.56a2,2,0,0,0-3.69.68l-3,14.55H513.38L500.67,582.72a2.8,2.8,0,0,1,4.69-2.32Z"/><path class="cls-7" d="M384.38,615.55,356.89,580a2.6,2.6,0,0,0-4.65,1.59v86.14s-9.37,26.78-30.79,9.38l-16.05-13a3.29,3.29,0,0,0-5.36,2.7c.62,15.22,5.49,49.69,36.81,49.17l40.17-.67,8-12.56a2,2,0,0,1,3.68.69l3,14.55h22.77l12.7-135.33a2.8,2.8,0,0,0-4.69-2.32Z"/></g></svg>